# xmcd
#
# Track frame offsets:
#	150
#	18407
#	55445
#	77532
#	94016
#	136659
#	164050
#	192703
#
# Disc length: 3158 seconds
#
# Revision: 0
# Processed by: cddbd v1.5PL3 Copyright (c) Steve Scherf et al.
# Submitted via: audiograbber 1.83.01
#
DISCID=670c5408
DTITLE=Kelly Richey - Live... As It Should Be [CD1]
DYEAR=2003
DGENRE=Blues
TTITLE0=Travelin'
TTITLE1=Brick
TTITLE2=Livin' On Love
TTITLE3=Now You Need Me
TTITLE4=Hey Joe
TTITLE5=The Blues Don't Lie
TTITLE6=Mean Old World
TTITLE7=Crossroads
EXTD=
EXTT0=
EXTT1=
EXTT2=
EXTT3=
EXTT4=
EXTT5=
EXTT6=
EXTT7=
PLAYORDER=
